@startuml

package com.adrenalinici.adrenaline.model {
  class Position {
    -line: int
    -cell: int

    +int cell()
    +int line()
  }

  enum AmmoColor {
      RED
      YELLOW
      BLUE
  }

  interface Gun {
      +List<AmmoColor> getRequiredAmmoToPickup();
      +List<AmmoColor> getRequiredAmmoToReload();
      +void visit(Consumer<AlternativeEffectGun> visitAlternativeEffectGun, Consumer<BaseEffectGun> visitBaseEffectGun)
  }

  BaseGun "1..n"-- AmmoColor: cost

  abstract class BaseGun implements Gun {
      -firstAmmo: AmmoColor
      -extraAmmo: List<AmmoColor>
      -name: String
      -note: Optional<String>
  }

  class AlternativeEffectGun extends BaseGun {
      -firstEffect: Effect
      -secondEffect: Effect
      -secondEffectCost: List<AmmoColor>

      +Effect getFirstEffect()
      +Effect getSecondEffect()
      +List<AmmoColor> getSecondEffectCost()
  }

  AlternativeEffectGun "0..n"-- AmmoColor: "second effect cost"
  AlternativeEffectGun "2..n"-- Effect

  class BaseEffectGun extends BaseGun {
      -baseEffect: Effect
      -firstExtraEffect: Optional<Effect>
      -firstExtraEffectCost: Optional<List<AmmoColor>>
      -secondExtraEffect: Optional<Effect>
      -secondExtraEffectCost: Optional<List<AmmoColor>>

      +Effect getBaseEffect()
      +Optional<Effect> getFirstExtraEffect()
      +Optional<List<AmmoColor>> getFirstExtraEffectCost()
      +Optional<Effect> getSecondExtraEffect()
      +Optional<List<AmmoColor>> getSecondExtraEffectCost()
  }

  BaseEffectGun "1"-- Effect: "first effect"
  BaseEffectGun "0..2"-- Effect: "extra effects"
  BaseEffectGun "0..n"-- AmmoColor: "first extra effect cost"
  BaseEffectGun "0..n"-- AmmoColor: "second extra effect cost"

  class PowerUpCard {
      -ammoColor: AmmoColor
      -powerUpType: PowerUpType
      +AmmoColor getAmmoColor()
      +PowerUpType getPowerUpType()
  }

  PowerUpCard "1..n"-- AmmoColor

  enum PowerUpType {
      VENOM_GRANADE
      SCOPE
      TELEPORT
      KINETIC_RAY
  }

  PowerUpCard "1"-- PowerUpType

  class Effect {
      -name : String
      -description: String
      -configFn: Function<GameController, EffectAvailableConfig>
      -applyFn: BiConsumer<EffectAvailableConfig, GameController>
      +String getName()
      +String getDescription()

      +EffectAvailableConfig generateConfig(GameController controller)
      +void applyEffect(EffectAvailableConfig config, GameController controller)
  }

  class EffectAvailableConfig {
    -hittablePlayers: List<PlayerColor>
    -possiblePreThisPlayerMoves: List<Integer[]>
    -possiblePostThisPlayerMoves: List<Integer[]>
    -possibleEnemiesMovements: Map<PlayerColor, List<PlayerColor>>
  }

  enum PlayerColor {
      GRAY
      YELLOW
      GREEN
      PURPLE
      CYAN
  }

  class PlayerDashboard {
      -ammos: List<AmmoColor>
      -damages: List<PlayerColor>
      -marks: List<PlayerColor>
      -loadedGuns: List<Gun>
      -unloadedGuns: List<Gun>
      -powerUpCards: List<PowerUpCard>
      -skullsNumber: int
      -points: int
      -firstPlayer: boolean

      +void addAmmo(AmmoColor ammo)
      +void removeAmmos(List<AmmoColor> ammos)
      +List<AmmoColor> getAmmos()
      +void addDamages(List<PlayerColor> damages)
      +void removeAllDamages()
      +List<PlayerColor> getDamages()
      +Optional<PlayerColor> getFirstDamage()
      +Optional<PlayerColor> getKillDamage()
      +Optional<PlayerColor> getCruelDamage()
      +void addMarks(List<PlayerColor> marks)
      +void removeMarks(List<PlayerColor> marks)
      +List<PlayerColor> getMarks()
      +void addLoadedGun(Gun loadedGun)
      +void removeLoadedGun(Gun loadedGun)
      +List<Gun> getLoadedGuns()
      +void addUnloadedGun(Gun unloadedGun)
      +void removeUnloadedGun(Gun loadedGun)
      +List<Gun> getUnloadedGuns()
      +void addPowerUpCard(PowerUpCard powerUp)
      +void removePowerUpCard(PowerUpCard powerUp)
      +List<PowerUpCard> getPowerUpCards()
      +void incrementSkullsNumber()
      +int getSkullsNumber()
      +void addPoints(int points)
      +int getPoints()
      +boolean getFirstPlayer()
  }

  PlayerDashboard "0..9"-- AmmoColor
  PlayerDashboard "0..12"-- PlayerColor: "damages"
  PlayerDashboard "0..n"-- PlayerColor: "marks"
  PlayerDashboard "0..3"-- PlayerColor: "guns"
  PlayerDashboard "0..n"-- PowerUpCard: "power up cards"

  class AmmoCard {
      -ammoColor: List<AmmoColor>
      -powerUpCard: Optional<PowerUpCard>

      +List<AmmoColor> getAmmoColor()
      +Optional<PowerUpCard> getPowerUpCard()
  }

  AmmoCard "2..3"-- AmmoColor
  AmmoCard "0..1"-- PowerUpCard

  enum Action {
      MOVE_MOVE_MOVE
      MOVE_PICKUP
      SHOOT
      MOVE_MOVE_PICKUP
      MOVE_SHOOT
      MOVE_RELOAD_SHOOT
      MOVE_MOVE_MOVE_MOVE
      MOVE_MOVE_RELOAD_SHOOT
      MOVE_MOVE_MOVE_PICKUP
  }

  class GameStatus {
      -killScore: List<Map.Entry<PlayerColor, Boolean>>
      -remainingSkulls: int
      -doubleKillScore: List<PlayerColor>
      -roundPlayer: PlayerColor
      -dashboard: Dashboard
      -playerDashboards: List<PlayerDashboard>

      +void addKillScore(PlayerColor playerColor, boolean cruelKill)
      +List<Map.Entry<PlayerColor, Boolean>> getKillScore()
      +int decrementSkulls()
      +int getRemainingSkulls()
      +void addDoubleKillScore(PlayerColor playerColor)
      +List<PlayerColor> getDoubleKillScore()
      +void setRoundPlayer(PlayerColor playerColor)
      +PlayerColor getRoundPlayer()
  }

  com.adrenalinici.adrenaline.observer.Observable <|-- GameStatus: "T::ModelEvent"

  note left: killScore is a list of tuples\nwhere PlayerColor is the color of the\nkiller and the Boolean represents cruel kill

  GameStatus "0..8"-- PlayerColor: "assassins"
  GameStatus "0..n"-- PlayerColor: "double kills"
  GameStatus "1"-- PlayerColor: "round of player"

  class Dashboard {
      -dashboardCells: List<DashboardCell>

      +List<DashboardCell> getDashboardCells()
  }

  enum DashboardCellBoundType{
      OPEN
      WALL
      DOOR
  }

  interface DashboardCell {
      +List<PlayerColor> getPlayersInCell()
      +Optional<DashboardCellBoundType> getNorthDashboardCellBoundType()
      +Optional<DashboardCellBoundType> getSouthDashboardCellBoundType()
      +Optional<DashboardCellBoundType> getWestDashboardCellBoundType()
      +Optional<DashboardCellBoundType> getEastDashboardCellBoundType()
      +Optional<DashboardCell> getNorthDashboardCell()
      +Optional<DashboardCell> getSouthDashboardCell()
      +Optional<DashboardCell> getWestDashboardCell()
      +Optional<DashboardCell> getEastDashboardCell()
      +void visit(Consumer<RespawnDashboardCell> visitRespawnDashboardCell, Consumer<PickupDashboardCell> visitPickupDashboardCell)
  }

  DashboardCell --*"0..n" Dashboard

  abstract class BaseDashboardCell implements DashboardCell {
      -playerInCell: List<PlayerColor>
      -northDashboardCellBoundType: DashboardCellBoundType
      -southDashboardCellBoundType: DashboardCellBoundType
      -westDashboardCellBoundType: DashboardCellBoundType
      -eastDashboardCellBoundType: DashboardCellBoundType
  }

  BaseDashboardCell "4"-- DashboardCellBoundType

  class RespawnDashboardCell extends BaseDashboardCell {
      -availableGuns: List<Gun>
      +List<Gun> getAvailableGuns()
      +void removeAvailableGun(Gun gunToRemove)
      +void addAvailableGun(Gun gunToAdd)
  }

  RespawnDashboardCell "0..3"-- Gun

  class PickupDashboardCell extends BaseDashboardCell {
      -ammoCard: Optional<AmmoCard>
      +AmmoCard getAmmoCard()
      +void setAmmoCard(AmmoCard ammoCard)
      +void removeAmmoCard()
  }

  PickupDashboardCell "0..1"-- AmmoCard

}

package com.adrenalinici.adrenaline.view.events {
  interface ViewEvent {
    +GameView getGameView()
  }

  class FirstTurnEvent implements ViewEvent {
    -player: PlayerColor
    +PlayerColor getPlayer()
  }

  class NewTurnEvent implements ViewEvent {
    -player: PlayerColor
    +PlayerColor getPlayer()
  }

  class ActionChosenEvent implements ViewEvent {
    -action: Action
    +Action getAction()
  }

  class MovementChosenEvent implements ViewEvent {
    -movement: Position
    +Position getMovement()
  }

  class GunChosenEvent implements ViewEvent {
    -gun: Gun
    +Gun getChosenGun()
  }

  class ChosenEffectConfigurationEvent implements ViewEvent {
    -playersToHit: List<PlayerColor>
    -effectToApply: Effect
    -numberOfScopePowerUpUsed: int
    +List<PlayerColor> getPlayersToHit()
    +Effect getEffectToApply()
    +int getNumberOfScopePowerUpUsed()
  }

  class ChosenRespawnLocationEvent implements ViewEvent {
    -respawnCell: Position
    +Position getRespawnCell()
  }

  class ReloadGunsEvent implements ViewEvent {
    -gunsToReload: List<Gun>
    +List<Gun> getGunsToReload()
  }

  class ChosenBaseEffectConfigurationEvent implements ViewEvent {
    -baseEffectPlayersToHit: List<PlayerColor>
    -extraEffectOnePlayersToHit: List<PlayerColor>
    -extraEffectTwoPlayersToHit: List<PlayerColor>
    -numberOfScopePowerUpUsed: int
    +List<PlayerColor> getBaseEffectPlayersToHit()
    +PlayerColor getExtraEffectOnePlayersToHit()
    +PlayerColor getExtraEffectTwoPlayersToHit()
    +int getNumberOfScopePowerUpUsed()
  }

  class VenomGranadeChosenEvent implements ViewEvent{
    -chosenVenomGranades: List<PowerUpCard>
    +List<PowerUpCard> getChosenVenomGranades()
  }

  class EnemyChosenEvent implements ViewEvent{
    -chosenEnemy: PlayerColor
    +PlayerColor getChosenEnemy()
  }

  class EnemyMovementChosenEvent implements ViewEvent{
    -chosenEnemyMovement: Position
    +Position getChosenEnemyMovement()
  }
}

package com.adrenalinici.adrenaline.model.events {
  interface ModelEvent{
    +GameStatus getGameStatus()
  }

  class DashboardCellUpdatedEvent implements ModelEvent{
    -dashboard: Dashboard
    -dashboardCell: DashboardCell
    +Dashboard getDashboard()
    +DashboardCell getDashboardCell()
  }

  class PlayerDashboardUpdatedEvent implements ModelEvent{
    -playerDashboard: PlayerDashboard
    +PlayerDashboard getPlayerDashboard()
  }

  class GameStatusUpdatedEvent implements ModelEvent{
    -killerColor: PlayerColor
    -cruelKill: Boolean
  }
}

package com.adrenalinici.adrenaline.server.controller.guns {
  abstract class AlternativeEffectGunFactory implements GunFactory {
    + AlternativeEffectGun getModelGun (String key, ObjectNode config)
    + public DecoratedAlternativeEffectGun getDecoratedGun(String key, ObjectNode config)
  }

  abstract class BaseEffectGunFactory implements GunFactory {
   +BaseEffectGun getModelGun(String key, ObjectNode config)
   +DecoratedBaseEffectGun getDecoratedGun(String key, ObjectNode config)
  }

  class MachineGunGunFactory extends BaseEffectGunFactory {
    +boolean canConsume(String key, ObjectNode config)
    +List<ControllerFlowNode> getAdditionalNodes(String key, ObjectNode config)
  }

  class ZX2GunFactory extends AlternativeEffectGunFactory {

    + boolean canConsume(String key, ObjectNode config)
    + List<ControllerFlowNode> getAdditionalNodes(String key, ObjectNode config)
  }
}

package com.adrenalinici.adrenaline.server.controller {

  class ControllerFlowContext extends com.adrenalinici.adrenaline.flow.BaseFlowContext {
    -int remainingActions;
    -PlayerColor turnOfPlayer;
    - List<PlayerColor> killedPlayers;
    - GunLoader loader;

    + int getRemainingActions()
    + ControllerFlowContext setRemainingActions(int remainingActions)
    + ControllerFlowContext decrementRemainingActions()
    + PlayerColor getTurnOfPlayer()
    + ControllerFlowContext setTurnOfPlayer(PlayerColor turnOfPlayer)
    + List<PlayerColor> getKilledPlayers()
    + ControllerFlowContext setKilledPlayers(List<PlayerColor> killedPlayers)
    + GunLoader getGunLoader()
  }

  interface ControllerFlowNode extends FlowNode

  class DecoratedEffect {
    - Effect effect
    - List<String> additionalPhases
    - List<AmmoColor> requiredAmmos

    + Effect get()
    + String getId()
    + String getName()
    + String getDescription()
    + List<AmmoColor> getRequiredAmmos()
    + List<String> getAdditionalPhases()
  }

  class GameController  {
    - GameModel gameModel
    - FlowOrchestrator<ControllerFlowContext> flowOrchestrator

    + public GameController(List<? extends FlowNode> flowNodes, GameModel gameModel)
    + void onEvent(ViewEvent event)
    - PlayerColor nextTurnPlayer()
    + endTurnCallback(GameView view)
    - void startNewTurn(GameView view, PlayerColor player)
    # ControllerFlowContext getFlowContext()
  }

  interface GunFactory {

    +boolean canConsume(String key, ObjectNode config)

    + Gun getModelGun(String key, ObjectNode config)
    + DecoratedGun getDecoratedGun(String key, ObjectNode config)
    + List<ControllerFlowNode> getAdditionalNodes(String key, ObjectNode config)
  }

  class GunLoader {
    - List<GunFactory> factories

    + GunLoader(List<GunFactory> factories)
    + Gun getModelGun(String id)
    + DecoratedGun getDecoratedGun(String id)
    + List<ControllerFlowNode> getAdditionalNodes(String id)
    + GunFactory resolveGunFactory(String id)
    + {static} JsonNode getGunConfigJson(String id)
  }

  class CardDeck<T> {
    -List<T> deck

    +CardDeck(List<T> deck)
    +Optional<T> getCard()
  }

  interface StatelessControllerFlowNode extends StatelessFlowNode

  com.adrenalinici.adrenaline.observer.Observer <|.. GameController: "T::ViewEvent"

  interface DecoratedGun extends com.adrenalinici.adrenaline.model.Gun {
    - Gun gun
    - List<String> phases

    + DecoratedGun(Gun gun, List<String> phases)
    + Gun get()
    +void visit(Consumer<AlternativeEffectGun> visitAlternativeEffectGun, Consumer<BaseEffectGun> visitBaseEffectGun)
    + String getId()
    + List<AmmoColor> getRequiredAmmoToPickup()
    + List<AmmoColor> getRequiredAmmoToReload()
    + String getName()
    + Optional<String> getNote()
    + List<String> getPhases()
  }

  class DecoratedAlternativeEffectGun extends DecoratedGun {
    - DecoratedEffect firstEffect
    - DecoratedEffect secondEffect

    + DecoratedEffect getFirstEffect()
    + DecoratedEffect getSecondEffect()
    + AlternativeEffectGun get()
  }

  class DecoratedBaseEffectGun extends DecoratedGun {
    - DecoratedEffect baseEffect
    - DecoratedEffect firstExtraEffect
    - DecoratedEffect secondExtraEffect

    + DecoratedEffect getBaseEffect()
    + List<AmmoColor> getFirstExtraEffectCost()
    + DecoratedEffect getFirstExtraEffect()
    + boolean hasFirstExtraEffect()
    + List<AmmoColor> getSecondExtraEffectCost()
    + DecoratedEffect getSecondExtraEffect()
    + boolean hasSecondExtraEffect()
    + BaseEffectGun get()
  }

}

package com.adrenalinici.adrenaline.server.controller.nodes {

  enum ControllerNodes {
      START_TURN
      PICKUP
      RELOAD
      CHOOSE_ACTION
      RESPAWN_KILLED_PEOPLE
      CHOOSE_GUN
      CHOOSE_PLAYER_TO_HIT
      ALTERNATIVE_GUN_START
      BASE_GUN_START
  }

  class ChooseActionFlowNode implements StatelessControllerFlowNode

  class ChooseGunFlowNode implements StatelessControllerFlowNode

  class ChooseMovementFlowNode implements StatelessControllerFlowNode {
    -int distance
  }

  class NewTurnFlowNode implements StatelessControllerFlowNode

  class PickupFlowNode implements StatelessControllerFlowNode

  class ReloadFlowNode implements StatelessControllerFlowNode
}

package com.adrenalinici.adrenaline.server.controller.nodes.guns {

  abstract class GunFlowState implements FlowState {
    -chosenGun: DecoratedGun
    -chosenPlayersToHit: List<PlayerColor>
    -hitPlayers: List<PlayerColor>
  }

  class AlternativeEffectGunFlowState extends GunFlowState {
    -firstEffect: Boolean
    -chosenEffect: DecoratedEffect
  }

  class BaseEffectGunFlowState extends GunFlowState {
    -activatedFirstExtraEffect: boolean
    -activatedSecondExtraEffect: boolean
  }

  class ApplyAlternativeGunFlowNode implements ControllerFlowNode {
    -nodeId: String
    -consumer: TriConsumer<AlternativeEffectGunFlowState, GameModel, ControllerFlowContext>
  }

  class ApplyBaseGunFlowNode implements ControllerFlowNode {
    -nodeId: String
    -consumer: TriConsumer<BaseEffectGunFlowState, GameModel, ControllerFlowContext>
  }

  class ChooseAlternativeEffectForGunFlowNode implements ControllerFlowNode
  class ChooseBaseEffectForGunFlowNode implements ControllerFlowNode
  class ChoosePlayersToHitFlowNode implements ControllerFlowNode
}

package com.adrenalinici.adrenaline.flow {

  interface FlowContext {
    + FlowOrchestrator getOrchestrator()
    + void jump(String stateId, GameView view, FlowState event)
    + void replayNode(GameView view)
    + void replayPhase(GameView view)
    + void nextPhase(GameView view)
    + void nextPhase(GameView view, FlowState flowState)
    + String actualPhase()
    + FlowNode actualFlowNode()
    + FlowNode actualNode()
    + void addPhases(String... phases)
    + void addPhasesToEnd(String... phases)
    + void end(GameView view)
    + void handleEvent(ViewEvent event)
  }

  interface FlowNode<S extends FlowState, C extends FlowContext> {
      + String id()
      + default S mapState(FlowState oldState)
      + void onJump(S flowState, GameView view, GameModel model, C context)
      + void handleEvent(ViewEvent event, S flowState, GameView view, GameModel model, C context)
  }

  interface FlowOrchestrator<T extends FlowContext> {
      + GameModel getModel()
      + void handleEvent(ViewEvent event)
      + void onEnd(GameView view)
      + FlowNode resolveState(String id)
      + void startNewFlow(GameView view, T context)
      + T getActualContext()
  }

  interface FlowState

  interface StatelessFlowNode<C extends FlowContext> extends FlowNode {
    + default VoidState mapState(FlowState oldState)
  }
}

package com.adrenalinici.adrenaline.server.impl {
  abstract class BaseFlowContext implements FlowContext {
    - FlowNode actualNode;
    # FlowState actualState;
    - String actualPhaseId;
    - List<String> phasesQueue;
    - FlowOrchestrator orchestrator;
    - int actualIndex;

    + BaseFlowContext(FlowOrchestrator orchestrator)
    + FlowOrchestrator getOrchestrator()
    + void jump(String stateId, GameView view, FlowState state)
    + void replayNode(GameView view) {
    + void nextPhase(GameView view, FlowState flowState)
    + String actualPhase()
    + FlowNode actualFlowNode()
    + FlowNode actualNode()
    + void replayPhase(GameView view)
    + void addPhases(String... phases)
    + void addPhasesToEnd(String... phases)
    + void end(GameView view)
    + void handleEvent(ViewEvent event)
    + List<String> getPhasesQueue()
  }

  class FlowOrchestratorImpl<T extends FlowContext> implements FlowOrchestrator {

    -Map<String, ? extends FlowNode> nodes;
    -T actualContext;
    -GameModel model;
    -Consumer<GameView> onEndCallback;

    +FlowOrchestratorImpl(List<? extends FlowNode> nodes, GameModel model, Consumer<GameView> onEndCallback)
    +GameModel getModel()
    +void handleEvent(ViewEvent event)
    +void onEnd(GameView view)
    +FlowNode resolveState(String id)
    +void startNewFlow(GameView gameView, T context)
    +T getActualContext()
  }

  class VoidState implements FlowState
}

package com.adrenalinici.adrenaline.view {
  class GameView {
    +void showAvailableActions(List<Action> actions)
    +void showAvailableMovements(List<Position> positions)
    +void showNextTurn(PlayerColor player)
    +void showReloadableGuns(List<Gun> guns)
    +void showLoadedGuns(List<Gun> guns)
    +void showBaseGunExtraEffects(List<Effect> effects)
    +void showAvailableRespawnLocations(List<AmmoColor> respawnLocations)
    +void showAvailableAlternativeEffectsGun(Effect firstEffect, Effect secondEffect)
    +void showChoosePlayerToHit(List<PlayerColor> players)
    +void showChoosePlayerToMove(Map<PlayerColor, List<Position>> availableMovements)
    +void showAvailableExtraEffects(Effect firstExtraEffect, Effect secondExtraEffect)
    +void showAvailableVenomGranades(PlayerColor player)
    +void showAvailablePowerUpCards(PlayerColor player)
    +void showAvailableEnemyMovements(List<Position> positions)
    +void showAvailableGuns(List<Gun> guns)
    +void showAvailableGunsToPickup(List<Gun> guns)
  }

  com.adrenalinici.adrenaline.observer.Observable <|-- GameView: "T::ViewEvent"
  com.adrenalinici.adrenaline.observer.Observer <|.. GameView: "T::ModelEvent"

  note bottom: the two different showApplicableEffects methods are called from AlternativeEffectGun (first one) and from BaseEffectGun (second one)
}

package com.adrenalinici.adrenaline.observer {
   interface Observer<T>
   class Observable<T>
}

package com.adrenalinici.adrenaline.network.inbox {
  interface InboxMessage

  class InboxEntry {
    -connectionId: String
    -message: InboxMessage

    +String getConnectionId()
    +InboxMessage getMessage()
  }
  
  class ViewEventMessage implements InboxMessage {
    -viewEvent: ViewEvent
    
    +ViewEvent getViewEvent()
  }
  
  class ConnectedPlayerMessage implements InboxMessage
  
  class DisconnectedPlayerMessage implements InboxMessage
  
  class ChosenMyPlayerColorMessage implements InboxMessage {
    -color: PlayerColor
    
    +PlayerColor getColor()
  }
}

package com.adrenalinici.adrenaline.network.outbox {
  interface OutboxMessage

  class AvailableActionsMessage implements OutboxMessage
  class AvailableAlternativeEffectsGunMessage implements OutboxMessage
  class AvailableEnemyExtraMovementsMessage implements OutboxMessage
  class AvailableExtraEffectsMessage implements OutboxMessage
  class AvailableGunsToPickupMessage implements OutboxMessage
  class AvailableMovementsMessage implements OutboxMessage
  class AvailablePowerUpCardsMessage implements OutboxMessage
  class AvailableRespawnLocationsMessage implements OutboxMessage
  class AvailableVenomGrenadesMessage implements OutboxMessage
  class baseGunExtraEffectsMessage implements OutboxMessage
  class ChooseMyPlayerMessage implements OutboxMessage
  class ChoosePlayerToHitMessage implements OutboxMessage
  class ChoosePlayerToMoveMessage implements OutboxMessage
  class LoadedGunsMessage implements OutboxMessage
  class ModelEventMessage implements OutboxMessage
  class NextTurnMessage implements OutboxMessage
  class ReloadableGunsMessage implements OutboxMessage
}

package com.adrenalinici.adrenaline.client.client {
  class ClientViewProxy {
    -view: BaseClientGameView

    +void handleNewServerMessage(OutboxMessage message)
  }

  com.adrenalinici.adrenaline.observer.Observable <|-- ClientViewProxy: "T::InboxMessage"

  class ClientNetworkAdapter implements java.lang.Runnable {
    -clientViewOutbox: BlockingQueue<InboxMessage>
    -clientViewInbox: BlockingQueue<OutboxMessage>
    -proxy: ClientViewProxy

    +void initialize()
    +void run()
    +void stop()
  }

  com.adrenalinici.adrenaline.observer.Observer <|-- ClientNetworkAdapter: "T::InboxMessage"
}

package com.adrenalinici.adrenaline.client.client.rmi {
  interface GameRmiClient extends java.rmi.Remote {
    +void acceptMessage(OutboxMessage message)
  }

  class GameRmiClientImpl implements GameRmiClient {
    -clientViewInbox: BlockingQueue<OutboxMessage>
  }

  class RmiClientNetworkAdapter extends ClientNetworkAdapter {
    -registry: Registry
    -server: GameRmiServer
    -senderThread: Thread
  }

  class SenderRunnable implements java.lang.Runnable {
    -clientViewOutbox: BlockingQueue<InboxMessage>
    -server: GameRmiServer
    -client: GameRmiClient
  }
}

package com.adrenalinici.adrenaline.client.client.socket {

  class SocketClientNetworkAdapter extends ClientNetworkAdapter {
    -receiverThread: Thread
    -senderThread: Thread
    -channel: SocketChannel
  }

  class ReceiverRunnable implements java.lang.Runnable {
    -clientViewInbox: BlockingQueue<OutboxMessage>
    -channel: SocketChannel
  }

  class SenderRunnable implements java.lang.Runnable {
    -clientViewOutbox: BlockingQueue<InboxMessage>
    -channel: SocketChannel
  }
}

package com.adrenalinici.adrenaline.network.server {
  abstract class BaseGameViewServer implements GameView, java.lang.Runnable {
    -inbox: BlockingQueue<InboxEntry>
    -outbox: BlockingQueue<OutboxMessage>
    -connectedPlayers: Map<String, PlayerColor>
    -availablePlayers: Set<PlayerColor>

    +void run()
    -void checkStartMatch()
    -void checkResumeMatch()
    #void broadcast(OutboxMessage en)
  }

  com.adrenalinici.adrenaline.observer.Observable <|-- BaseGameViewServer: "T::DecoratedEvent<ViewEvent, BaseGameViewServer>"

  class GameViewServer extends BaseGameViewServer

  abstract class ServerNetworkAdapter {
    -inbox: BlockingQueue<InboxEntry>
    -outbox: BlockingQueue<OutboxMessage>

    +abstract void start()
    +abstract void stop()
  }

}

package com.adrenalinici.adrenaline.server.network.socket {
  abstract class BaseSocketRunnable {
    #connectedClients: Map<Socket, String>
  }

  class BroadcasterRunnable extends BaseSocketRunnable {
    -viewOutbox: BlockingQueue<OutboxMessage>
  }

  class ReceiverRunnable extends BaseSocketRunnable {
    -readSelector: Selector
    -viewInbox: BlockingQueue<InboxEntry>
  }

  class SocketServerNetworkAdapter extends com.adrenalinici.adrenaline.server.network.ServerNetworkAdapter {
    -receiverThread: Thread
    -broadcasterThread: Thread
    -serverChannel: ServerSocketChannel
    -connectedClients: Map<Socket, String>

    +void start()
    +void stop()
  }

}

package com.adrenalinici.adrenaline.server.network.rmi {
  interface GameRmiServer extends java.rmi.Remote {
    +void acceptMessage(InboxMessage message, GameRmiClient client)
    +void startConnection(GameRmiClient client)
  }

  class BroadcasterRunnable implements java.lang.Runnable {
    -connectedClients: Map<String, GameRmiClient>
    -viewOutbox: BlockingQueue<OutboxMessage>
  }

  class RmiServerNetworkAdapter extends com.adrenalinici.adrenaline.server.network.ServerNetworkAdapter implements GameRmiServer {
    -addressToConnectionId: Map<String, String>
    -connectionIdToClient: Map<String, GameRmiClient>
    -broadcasterThread: Thread
    -registry: Registry

    +void start()
    +void stop()
  }

}

@enduml
